<svg width="789" height="789" viewBox="0 0 789 789" fill="none" xmlns="http://www.w3.org/2000/svg">
<g clip-path="url(#clip0_1_28)">
<mask id="mask0_1_28" style="mask-type:luminance" maskUnits="userSpaceOnUse" x="0" y="0" width="789" height="789">
<path d="M789 394.5C789 176.624 612.376 0 394.5 0C176.624 0 0 176.624 0 394.5C0 612.376 176.624 789 394.5 789C612.376 789 789 612.376 789 394.5Z" fill="white"/>
</mask>
<g mask="url(#mask0_1_28)">
<path d="M789 394.5C789 176.624 612.376 0 394.5 0C176.624 0 0 176.624 0 394.5C0 612.376 176.624 789 394.5 789C612.376 789 789 612.376 789 394.5Z" fill="#C1E5FF"/>
<path d="M540.798 116C299.063 280.215 87.8236 419.5 108.386 494C139.299 606 632 236 684.386 338C725.988 419 60 789 60 789" stroke="#38BDF8" stroke-width="50"/>
<path d="M601.297 100C615.104 100 626.297 88.8071 626.297 75C626.297 61.1929 615.104 50 601.297 50C587.49 50 576.297 61.1929 576.297 75C576.297 88.8071 587.49 100 601.297 100Z" fill="#38BDF8"/>
<path d="M539.297 142C553.104 142 564.297 130.807 564.297 117C564.297 103.193 553.104 92 539.297 92C525.49 92 514.297 103.193 514.297 117C514.297 130.807 525.49 142 539.297 142Z" fill="#38BDF8"/>
<path d="M390 644C528.071 644 640 532.071 640 394C640 255.929 528.071 144 390 144C251.929 144 140 255.929 140 394C140 532.071 251.929 644 390 644Z" fill="white"/>
<path d="M109 494.991C139.913 606.991 632.613 236.991 685 338.991" stroke="#38BDF8" stroke-width="50"/>
</g>
<path d="M410.4 533.5C393.6 533.5 379.25 531.517 367.35 527.55C355.683 523.35 345.883 518.1 337.95 511.8C330.25 505.267 324.067 498.5 319.4 491.5C314.733 484.267 311.233 477.5 308.9 471.2C306.8 464.667 305.4 459.417 304.7 455.45C304.233 451.25 304 449.15 304 449.15H358.6C358.6 449.15 359.067 451.133 360 455.1C361.167 459.067 363.5 463.733 367 469.1C370.5 474.233 375.867 478.783 383.1 482.75C390.333 486.483 400.133 488.35 412.5 488.35C427.667 488.35 438.867 485.2 446.1 478.9C453.333 472.367 456.95 464.667 456.95 455.8C456.95 447.867 454.15 441.567 448.55 436.9C443.183 432.233 434.783 428.733 423.35 426.4L388.7 419.75C374.7 417.183 361.633 413.1 349.5 407.5C337.6 401.9 327.917 394.2 320.45 384.4C312.983 374.367 309.25 361.533 309.25 345.9C309.25 330.033 313.217 316.267 321.15 304.6C329.083 292.7 340.167 283.6 354.4 277.3C368.867 270.767 385.783 267.5 405.15 267.5C423.35 267.5 438.4 270.183 450.3 275.55C462.433 280.683 472 287.1 479 294.8C486.233 302.267 491.483 309.85 494.75 317.55C498.25 325.25 500.467 331.667 501.4 336.8C502.567 341.933 503.15 344.5 503.15 344.5H449.95C449.95 344.5 449.483 342.867 448.55 339.6C447.85 336.333 445.983 332.6 442.95 328.4C439.917 324.2 435.25 320.467 428.95 317.2C422.883 313.933 414.483 312.3 403.75 312.3C389.05 312.3 378.433 315.567 371.9 322.1C365.367 328.4 362.1 335.283 362.1 342.75C362.1 350.45 365.367 356.4 371.9 360.6C378.433 364.8 386.95 367.95 397.45 370.05L434.2 377.4C448.2 379.967 461.033 384.283 472.7 390.35C484.367 396.417 493.583 404.583 500.35 414.85C507.35 424.883 510.85 437.367 510.85 452.3C510.85 467.7 507 481.583 499.3 493.95C491.6 506.083 480.283 515.767 465.35 523C450.417 530 432.1 533.5 410.4 533.5Z" fill="black"/>
</g>
<defs>
<clipPath id="clip0_1_28">
<rect width="789" height="789" fill="white"/>
</clipPath>
</defs>
</svg>
