<svg xmlns="http://www.w3.org/2000/svg" width="1459" height="740" fill="none" viewBox="0 0 1459 740"><path stroke="#38BDF8" stroke-width="50" d="M459.798 66C218.063 230.215 6.82406 369.5 27.3861 444C58.2991 556 551 186 603.386 288C644.988 369 96.5001 672.5 96.5001 672.5"/><path fill="#38BDF8" d="M520.298 50C534.105 50 545.298 38.8071 545.298 25C545.298 11.1929 534.105 0 520.298 0C506.491 0 495.298 11.1929 495.298 25C495.298 38.8071 506.491 50 520.298 50Z"/><path fill="#38BDF8" d="M458.298 92C472.105 92 483.298 80.8071 483.298 67C483.298 53.1929 472.105 42 458.298 42C444.491 42 433.298 53.1929 433.298 67C433.298 80.8071 444.491 92 458.298 92Z"/><path fill="#38BDF8" d="M96 697.78C109.807 697.78 121 686.587 121 672.78C121 658.973 109.807 647.78 96 647.78C82.1929 647.78 71 658.973 71 672.78C71 686.587 82.1929 697.78 96 697.78Z"/><path fill="#38BDF8" d="M34 740C47.8071 740 59 728.807 59 715C59 701.193 47.8071 690 34 690C20.1929 690 9 701.193 9 715C9 728.807 20.1929 740 34 740Z"/><path fill="#fff" d="M316 594C454.071 594 566 482.071 566 344C566 205.929 454.071 94 316 94C177.929 94 66 205.929 66 344C66 482.071 177.929 594 316 594Z"/><path stroke="#38BDF8" stroke-width="50" d="M28 444.991C58.913 556.991 551.613 186.991 604 288.991"/><path fill="#000" d="M332.4 481.5C315.6 481.5 301.25 479.517 289.35 475.55C277.683 471.35 267.883 466.1 259.95 459.8C252.25 453.267 246.067 446.5 241.4 439.5C236.733 432.267 233.233 425.5 230.9 419.2C228.8 412.667 227.4 407.417 226.7 403.45C226.233 399.25 226 397.15 226 397.15H280.6C280.6 397.15 281.067 399.133 282 403.1C283.167 407.067 285.5 411.733 289 417.1C292.5 422.233 297.867 426.783 305.1 430.75C312.333 434.483 322.133 436.35 334.5 436.35C349.667 436.35 360.867 433.2 368.1 426.9C375.333 420.367 378.95 412.667 378.95 403.8C378.95 395.867 376.15 389.567 370.55 384.9C365.183 380.233 356.783 376.733 345.35 374.4L310.7 367.75C296.7 365.183 283.633 361.1 271.5 355.5C259.6 349.9 249.917 342.2 242.45 332.4C234.983 322.367 231.25 309.533 231.25 293.9C231.25 278.033 235.217 264.267 243.15 252.6C251.083 240.7 262.167 231.6 276.4 225.3C290.867 218.767 307.783 215.5 327.15 215.5C345.35 215.5 360.4 218.183 372.3 223.55C384.433 228.683 394 235.1 401 242.8C408.233 250.267 413.483 257.85 416.75 265.55C420.25 273.25 422.467 279.667 423.4 284.8C424.567 289.933 425.15 292.5 425.15 292.5H371.95C371.95 292.5 371.483 290.867 370.55 287.6C369.85 284.333 367.983 280.6 364.95 276.4C361.917 272.2 357.25 268.467 350.95 265.2C344.883 261.933 336.483 260.3 325.75 260.3C311.05 260.3 300.433 263.567 293.9 270.1C287.367 276.4 284.1 283.283 284.1 290.75C284.1 298.45 287.367 304.4 293.9 308.6C300.433 312.8 308.95 315.95 319.45 318.05L356.2 325.4C370.2 327.967 383.033 332.283 394.7 338.35C406.367 344.417 415.583 352.583 422.35 362.85C429.35 372.883 432.85 385.367 432.85 400.3C432.85 415.7 429 429.583 421.3 441.95C413.6 454.083 402.283 463.767 387.35 471C372.417 478 354.1 481.5 332.4 481.5Z"/><path fill="#fff" d="M861.6 430C852.8 430 845.2 428.867 838.8 426.6C832.533 424.333 827.333 421.467 823.2 418C819.067 414.4 815.733 410.6 813.2 406.6C810.8 402.6 809 398.867 807.8 395.4C806.6 391.8 805.8 388.867 805.4 386.6C805 384.333 804.8 383.2 804.8 383.2H828.6C828.6 383.2 828.8 384.133 829.2 386C829.6 387.733 830.4 389.933 831.6 392.6C832.8 395.133 834.6 397.733 837 400.4C839.533 402.933 842.8 405.133 846.8 407C850.933 408.733 856.133 409.6 862.4 409.6C871.733 409.6 879 407.4 884.2 403C889.533 398.6 892.2 393 892.2 386.2C892.2 380.333 890.2 375.8 886.2 372.6C882.333 369.267 876.6 366.733 869 365L849.4 360.4C842.067 358.8 835.267 356.467 829 353.4C822.867 350.2 817.867 345.933 814 340.6C810.267 335.267 808.4 328.533 808.4 320.4C808.4 311.6 810.533 304.067 814.8 297.8C819.2 291.4 825.2 286.533 832.8 283.2C840.533 279.733 849.333 278 859.2 278C868.8 278 876.733 279.467 883 282.4C889.267 285.2 894.267 288.667 898 292.8C901.733 296.933 904.467 301.133 906.2 305.4C908.067 309.533 909.267 313.067 909.8 316C910.333 318.8 910.6 320.2 910.6 320.2H887.8C887.8 320.2 887.533 319.133 887 317C886.467 314.733 885.2 312.133 883.2 309.2C881.333 306.267 878.4 303.733 874.4 301.6C870.533 299.333 865.267 298.2 858.6 298.2C849.4 298.2 842.533 300.333 838 304.6C833.467 308.867 831.2 313.6 831.2 318.8C831.2 323.867 833.133 327.933 837 331C840.867 333.933 846.067 336.133 852.6 337.6L873.6 342.6C881.333 344.333 888.333 346.933 894.6 350.4C901 353.867 906.067 358.467 909.8 364.2C913.533 369.8 915.4 376.667 915.4 384.8C915.4 393.067 913.333 400.667 909.2 407.6C905.2 414.4 899.2 419.867 891.2 424C883.2 428 873.333 430 861.6 430ZM939.106 428V276H961.906V337.4H963.106C964.04 335.533 965.64 333.267 967.906 330.6C970.173 327.8 973.306 325.333 977.306 323.2C981.44 321.067 986.64 320 992.906 320C1000.77 320 1007.37 321.8 1012.71 325.4C1018.04 329 1022.04 333.8 1024.71 339.8C1027.51 345.8 1028.91 352.4 1028.91 359.6V428H1006.11V362C1006.11 355.6 1004.31 350.2 1000.71 345.8C997.24 341.4 992.04 339.2 985.106 339.2C979.64 339.2 975.173 340.6 971.706 343.4C968.373 346.067 965.906 349.6 964.306 354C962.706 358.267 961.906 362.867 961.906 367.8V428H939.106ZM1089.27 430C1078.6 430 1070.27 426.667 1064.27 420C1058.27 413.333 1055.27 404.467 1055.27 393.4V322H1078.07V390.6C1078.07 397 1079.74 402 1083.07 405.6C1086.54 409.067 1091.2 410.8 1097.07 410.8C1102.8 410.8 1107.4 409.333 1110.87 406.4C1114.34 403.467 1116.8 399.733 1118.27 395.2C1119.87 390.533 1120.67 385.733 1120.67 380.8V322H1143.47V428H1120.67V412.8H1119.47C1118.4 414.8 1116.67 417.2 1114.27 420C1112 422.667 1108.8 425 1104.67 427C1100.67 429 1095.54 430 1089.27 430ZM1229.32 430C1222.52 430 1216.85 428.933 1212.32 426.8C1207.92 424.667 1204.39 422.2 1201.72 419.4C1199.19 416.6 1197.25 414.2 1195.92 412.2H1194.72V428H1171.92V276H1194.72V337.8H1195.92C1197.25 335.8 1199.19 333.4 1201.72 330.6C1204.39 327.8 1207.92 325.333 1212.32 323.2C1216.85 321.067 1222.52 320 1229.32 320C1237.19 320 1244.12 321.6 1250.12 324.8C1256.12 327.867 1261.05 332.067 1264.92 337.4C1268.92 342.6 1271.85 348.467 1273.72 355C1275.72 361.533 1276.72 368.2 1276.72 375C1276.72 381.8 1275.72 388.467 1273.72 395C1271.85 401.533 1268.92 407.467 1264.92 412.8C1261.05 418 1256.12 422.2 1250.12 425.4C1244.12 428.467 1237.19 430 1229.32 430ZM1224.12 411C1230.79 411 1236.25 409.267 1240.52 405.8C1244.92 402.2 1248.19 397.667 1250.32 392.2C1252.59 386.733 1253.72 381 1253.72 375C1253.72 369 1252.59 363.267 1250.32 357.8C1248.19 352.333 1244.92 347.867 1240.52 344.4C1236.25 340.8 1230.79 339 1224.12 339C1217.59 339 1212.12 340.8 1207.72 344.4C1203.45 347.867 1200.19 352.333 1197.92 357.8C1195.79 363.267 1194.72 369 1194.72 375C1194.72 381 1195.79 386.733 1197.92 392.2C1200.19 397.667 1203.45 402.2 1207.72 405.8C1212.12 409.267 1217.59 411 1224.12 411ZM1302.97 428V276H1325.77V337.4H1326.97C1327.91 335.533 1329.51 333.267 1331.77 330.6C1334.04 327.8 1337.17 325.333 1341.17 323.2C1345.31 321.067 1350.51 320 1356.77 320C1364.64 320 1371.24 321.8 1376.57 325.4C1381.91 329 1385.91 333.8 1388.57 339.8C1391.37 345.8 1392.77 352.4 1392.77 359.6V428H1369.97V362C1369.97 355.6 1368.17 350.2 1364.57 345.8C1361.11 341.4 1355.91 339.2 1348.97 339.2C1343.51 339.2 1339.04 340.6 1335.57 343.4C1332.24 346.067 1329.77 349.6 1328.17 354C1326.57 358.267 1325.77 362.867 1325.77 367.8V428H1302.97Z"/></svg>