<svg xmlns="http://www.w3.org/2000/svg" width="909" height="909" fill="none" viewBox="0 0 909 909"><path stroke="#38BDF8" stroke-width="50" d="M606.798 163C365.063 327.215 153.824 466.5 174.386 541C205.299 653 698 283 750.386 385C791.988 466 243.5 769.5 243.5 769.5"/><path fill="#38BDF8" d="M667.298 147C681.105 147 692.298 135.807 692.298 122C692.298 108.193 681.105 97 667.298 97C653.491 97 642.298 108.193 642.298 122C642.298 135.807 653.491 147 667.298 147Z"/><path fill="#38BDF8" d="M605.298 189C619.105 189 630.298 177.807 630.298 164C630.298 150.193 619.105 139 605.298 139C591.491 139 580.298 150.193 580.298 164C580.298 177.807 591.491 189 605.298 189Z"/><path fill="#38BDF8" d="M243 794.78C256.807 794.78 268 783.587 268 769.78C268 755.973 256.807 744.78 243 744.78C229.193 744.78 218 755.973 218 769.78C218 783.587 229.193 794.78 243 794.78Z"/><path fill="#38BDF8" d="M181 837C194.807 837 206 825.807 206 812C206 798.193 194.807 787 181 787C167.193 787 156 798.193 156 812C156 825.807 167.193 837 181 837Z"/><path fill="#fff" d="M463 691C601.071 691 713 579.071 713 441C713 302.929 601.071 191 463 191C324.929 191 213 302.929 213 441C213 579.071 324.929 691 463 691Z"/><path stroke="#38BDF8" stroke-width="50" d="M175 541.991C205.913 653.991 698.613 283.991 751 385.991"/><path fill="#000" d="M479.4 578.5C462.6 578.5 448.25 576.517 436.35 572.55C424.683 568.35 414.883 563.1 406.95 556.8C399.25 550.267 393.067 543.5 388.4 536.5C383.733 529.267 380.233 522.5 377.9 516.2C375.8 509.667 374.4 504.417 373.7 500.45C373.233 496.25 373 494.15 373 494.15H427.6C427.6 494.15 428.067 496.133 429 500.1C430.167 504.067 432.5 508.733 436 514.1C439.5 519.233 444.867 523.783 452.1 527.75C459.333 531.483 469.133 533.35 481.5 533.35C496.667 533.35 507.867 530.2 515.1 523.9C522.333 517.367 525.95 509.667 525.95 500.8C525.95 492.867 523.15 486.567 517.55 481.9C512.183 477.233 503.783 473.733 492.35 471.4L457.7 464.75C443.7 462.183 430.633 458.1 418.5 452.5C406.6 446.9 396.917 439.2 389.45 429.4C381.983 419.367 378.25 406.533 378.25 390.9C378.25 375.033 382.217 361.267 390.15 349.6C398.083 337.7 409.167 328.6 423.4 322.3C437.867 315.767 454.783 312.5 474.15 312.5C492.35 312.5 507.4 315.183 519.3 320.55C531.433 325.683 541 332.1 548 339.8C555.233 347.267 560.483 354.85 563.75 362.55C567.25 370.25 569.467 376.667 570.4 381.8C571.567 386.933 572.15 389.5 572.15 389.5H518.95C518.95 389.5 518.483 387.867 517.55 384.6C516.85 381.333 514.983 377.6 511.95 373.4C508.917 369.2 504.25 365.467 497.95 362.2C491.883 358.933 483.483 357.3 472.75 357.3C458.05 357.3 447.433 360.567 440.9 367.1C434.367 373.4 431.1 380.283 431.1 387.75C431.1 395.45 434.367 401.4 440.9 405.6C447.433 409.8 455.95 412.95 466.45 415.05L503.2 422.4C517.2 424.967 530.033 429.283 541.7 435.35C553.367 441.417 562.583 449.583 569.35 459.85C576.35 469.883 579.85 482.367 579.85 497.3C579.85 512.7 576 526.583 568.3 538.95C560.6 551.083 549.283 560.767 534.35 568C519.417 575 501.1 578.5 479.4 578.5Z"/></svg>